<?xml version="1.0" encoding="UTF-8"?>
<svg version="1.1" viewBox="0 0 2048 1174" width="1280" height="1280" xmlns="http://www.w3.org/2000/svg">
<path transform="translate(0)" d="m0 0h2048v1174h-2048z" fill="#FEFEFE"/>
<path transform="translate(1051,76)" d="m0 0h302l-4 20-41 177-21 91-41 178-65 281-28 121-6 21-8 21-13 25-12 17-9 11-11 12-7 7-11 9-15 11-21 12-17 8-24 8-24 5-24 2h-299l-1-2 51-221 22-95 30-130 28-121 72-312 8-23 11-23 12-19 11-14 11-12 12-12 14-11 14-10 22-12 22-9 26-7 20-3z" fill="#F07627"/>
<path transform="translate(494,235)" d="m0 0h298l-1 9-41 178-25 108-54 234-11 47-6 15-8 16-8 14-12 17-13 15-14 14-14 11-13 9-16 9-19 9-25 8-21 4-9 1-22 1h-231l-65-1 2-11 108-468 16-69 8-26 8-18 11-21 14-20 11-13 7-7 1-2h2v-2l8-7 13-11 21-14 21-11 21-8 23-6 19-3z" fill="#0E6AB0"/>
<path transform="translate(1545,235)" d="m0 0h295l-2 11-63 273-22 95-21 91-19 82-9 27-7 16-10 18-8 12-10 13-12 14-13 13-14 11-14 10-16 9-19 9-24 8-26 5-9 1h-311l4-19 29-125 21-91 37-160 21-91 14-61 6-20 8-20 8-16 8-14 10-14 9-11 9-10 13-13 14-11 13-9 21-12 21-9 25-7 23-4z" fill="#19B054"/>
<path transform="translate(885,415)" d="m0 0h265l16 4 13 7 8 7 8 11 5 12 2 8v21l-6 28-11 47-6 17-9 17-10 13-10 10-14 9-13 5-18 3-190 1-10 42-6 25-6 16-7 12-9 11-8 8-13 10-15 8-15 5-14 2h-9l-1-2 31-134 49-213 2-9z" fill="#FEFEFE"/>
<path transform="translate(433,415)" d="m0 0h269l-3 11-7 17-8 12-12 13-11 9-15 9-18 6-13 2-187 1-3 9-11 48-1 3h209l-2 10-6 15-9 14-11 12-9 8-15 10-17 7-15 3-143 1-9 37-8 33-6 15-7 11-9 11-12 11-15 10-14 6-16 4-16 1 1-10 22-95 26-113 16-69 5-15 8-13 9-11 8-8 13-10 17-9 13-4z" fill="#FEFEFE"/>
<path transform="translate(1392,415)" d="m0 0h276l15 3 10 4 11 8 8 9 5 8 4 11 1 5v23l-1 7-1 1h-133l-2 11-21 90-23 99-5 17-8 16-11 14-7 7-13 10-14 8-18 6-16 2h-6l1-9 25-108 17-74 19-83 2-5-68-1-15-4-11-6-11-10-7-11-4-11-2-9v-15l2-12z" fill="#FEFEFE"/>
<path transform="translate(1816,829)" d="m0 0 15 1 14 4 12 7 10 9 7 10 6 13 2 9v19l-5 16-7 12-7 8-13 9-12 5-15 3-13-1-13-4-12-6-12-11-7-10-5-11-3-14v-10l3-15 8-16 9-10 7-6 16-8z" fill="#FEFEFE"/>
<path transform="translate(947,494)" d="m0 0h172l-1 9-12 51-53 1h-46l-74-1 4-19 9-39z" fill="#F17627"/>
<path transform="translate(1816,829)" d="m0 0 15 1 14 4 12 7 10 9 7 10 6 13 2 9v19l-5 16-7 12-7 8-13 9-12 5-15 3-13-1-13-4-12-6-12-11-7-10-5-11-3-14v-10l3-15 8-16 9-10 7-6 16-8zm-4 13-10 3-10 6-5 4-7 10-5 12-1 4v20l4 13 6 10 8 8 8 5 13 4h15l12-4 11-7 7-8 7-14 2-9v-15l-3-12-7-13-8-8-11-6-10-3z" fill="#0E6DAB"/>
<path transform="translate(1796,856)" d="m0 0h34l10 3 5 5 3 5 1 11-3 8-7 6-7 2 2 5 14 23v3l-13-1-9-15-9-14-7-1v30l-4 1-10-1z" fill="#0E6FA9"/>
<path transform="translate(1810,866)" d="m0 0h15l7 2 3 4v8l-5 5-3 1h-17z" fill="#FEFEFE"/>
</svg>
